<?xml version="1.0" standalone="no"?>
<!DOCTYPE svg PUBLIC "-//W3C//DTD SVG 20010904//EN"
 "http://www.w3.org/TR/2001/REC-SVG-20010904/DTD/svg10.dtd">
<svg version="1.0" xmlns="http://www.w3.org/2000/svg"
 width="280.000000pt" height="161.000000pt" viewBox="0 0 280.000000 161.000000"
 preserveAspectRatio="xMidYMid meet">

<g transform="translate(0.000000,161.000000) scale(0.100000,-0.100000)"
fill="#000000" stroke="none">
<path d="M0 805 l0 -805 1400 0 1400 0 0 805 0 805 -1400 0 -1400 0 0 -805z
m1588 750 c20 -14 41 -25 46 -25 10 0 183 -127 188 -138 5 -12 76 -62 101 -71
18 -7 26 -19 31 -49 3 -22 13 -45 21 -52 9 -7 13 -21 9 -34 -3 -12 2 -39 11
-60 21 -50 13 -82 -28 -106 -26 -16 -50 -20 -129 -20 -54 0 -98 3 -98 8 1 4
15 16 33 27 31 20 107 118 107 139 0 6 -51 44 -112 84 -91 59 -124 87 -167
143 -40 51 -60 69 -78 69 -13 0 -26 8 -30 18 -13 33 -32 38 -111 30 -43 -5
-84 -12 -92 -16 -8 -5 -53 -17 -100 -28 l-85 -19 117 -5 118 -5 -46 -57 -46
-58 -164 0 c-163 0 -164 0 -164 23 0 30 19 97 28 97 4 0 63 14 132 30 69 16
181 37 250 46 95 12 130 20 145 35 27 26 69 24 113 -6z m33 -211 c43 -53 79
-99 79 -101 0 -2 -59 -75 -131 -163 l-132 -160 -79 0 c-89 0 -88 -3 -26 72
l40 48 -81 98 c-45 55 -81 102 -81 106 0 3 34 49 75 101 81 102 80 101 189 98
l68 -1 79 -98z m-404 -147 l42 -52 -191 -3 c-105 -1 -193 -1 -195 1 -2 2 2 27
9 56 l11 51 141 -1 141 0 42 -52z m101 -185 c-7 -10 -26 -35 -43 -55 l-30 -37
-212 0 c-133 0 -213 4 -213 10 0 5 5 30 12 55 l12 45 244 0 c232 0 243 -1 230
-18z m1311 -368 l61 -76 -35 -42 c-20 -22 -63 -76 -98 -118 -62 -77 -62 -77
-111 -78 -53 0 -53 0 -3 57 l20 22 -67 80 -66 80 61 76 61 75 58 0 58 0 61
-76z m-2043 24 c-3 -13 -6 -26 -6 -30 0 -5 -81 -8 -180 -8 -99 0 -180 3 -180
8 0 4 3 17 6 30 6 22 8 22 186 22 l180 0 -6 -22z m484 2 c18 -18 20 -33 20
-144 0 -146 -8 -164 -77 -168 -46 -2 -50 -9 -28 -48 21 -37 19 -40 -24 -40
l-38 0 -47 104 c-25 57 -46 107 -46 110 0 4 15 6 33 4 25 -2 35 -10 47 -35 13
-29 19 -33 58 -33 l42 0 0 105 0 105 -139 0 -139 0 0 -105 1 -105 38 0 c32 0
41 -5 54 -30 8 -16 15 -31 15 -33 0 -12 -157 6 -170 19 -12 12 -15 43 -15 150
0 123 2 137 19 150 15 11 60 14 198 14 165 0 179 -1 198 -20z m200 -115 l0
-135 120 0 120 0 0 135 0 135 40 0 40 0 0 -149 c0 -123 -3 -152 -16 -165 -13
-13 -44 -16 -184 -16 -213 0 -200 -12 -200 187 l0 143 40 0 40 0 0 -135z m510
-30 l0 -165 -40 0 -40 0 0 165 0 165 40 0 40 0 0 -165z m480 145 c25 -25 28
-124 4 -158 -14 -21 -22 -22 -150 -22 l-134 0 0 -64 c0 -36 -3 -67 -7 -69 -5
-2 -24 -2 -43 0 l-35 5 3 164 3 164 169 0 c157 0 172 -2 190 -20z m-1714 -132
c-3 -13 -6 -26 -6 -30 0 -5 -81 -8 -180 -8 -99 0 -180 3 -180 8 0 4 3 17 6 30
6 22 8 22 186 22 l180 0 -6 -22z m-36 -132 c0 -45 -3 -46 -196 -46 l-183 0 10
30 11 30 179 0 c148 0 179 -2 179 -14z m-316 -222 c25 -10 19 -20 -11 -19 -24
0 -28 -4 -28 -30 0 -25 4 -30 28 -33 15 -2 25 -8 22 -13 -16 -25 -75 8 -75 43
0 10 9 27 20 38 22 22 22 22 44 14z m759 -11 c-13 -2 -23 -11 -23 -19 0 -8 10
-15 23 -15 l22 -2 -22 -4 c-32 -6 -30 -33 2 -33 14 0 25 -5 25 -11 0 -6 -14
-9 -32 -7 -32 3 -33 5 -36 51 l-3 47 33 -1 c23 -1 26 -3 11 -6z m750 0 c-8 -2
-13 -22 -13 -44 0 -21 -4 -39 -10 -39 -5 0 -10 18 -10 39 0 29 -5 41 -17 44
-10 3 0 5 22 5 22 0 34 -2 28 -5z m153 -10 c13 -17 15 -17 28 0 20 26 31 20
12 -8 -9 -13 -16 -33 -16 -45 0 -11 -4 -20 -10 -20 -5 0 -10 9 -10 20 0 12 -7
32 -16 45 -19 28 -8 34 12 8z m371 -29 c2 -37 0 -43 -23 -48 -36 -9 -44 0 -44
50 0 45 0 45 32 42 30 -3 32 -6 35 -44z m-1579 5 c-6 -4 -8 -19 -4 -33 4 -15
2 -26 -4 -26 -5 0 -10 14 -10 31 0 28 -2 30 -32 27 -40 -4 -45 -29 -8 -39 22
-5 23 -7 7 -14 -23 -10 -49 13 -45 39 2 15 12 22 33 24 17 2 34 7 39 12 5 5
14 3 21 -3 8 -8 9 -14 3 -18z m936 -18 c2 -27 -1 -40 -8 -38 -15 5 -25 64 -13
76 15 15 18 9 21 -38z m-1286 3 c2 -11 -4 -26 -12 -33 -31 -26 -71 14 -45 45
17 21 53 14 57 -12z m80 -6 c2 -16 -1 -28 -7 -28 -6 0 -11 12 -11 26 0 32 -22
27 -31 -7 -6 -21 -7 -20 -8 9 -1 31 1 33 27 30 21 -2 28 -9 30 -30z m76 16 c9
-24 7 -44 -4 -44 -5 0 -10 12 -10 26 0 31 -23 28 -28 -4 -5 -33 -23 -26 -20 8
2 25 6 30 29 30 15 0 29 -7 33 -16z m79 2 c7 -18 -1 -26 -27 -27 -18 -1 -18
-2 4 -9 22 -6 23 -8 7 -15 -30 -13 -64 35 -40 58 12 12 51 7 56 -7z m157 -16
c0 -16 -4 -30 -10 -30 -5 0 -10 14 -10 30 0 17 5 30 10 30 6 0 10 -13 10 -30z
m74 14 c9 -24 7 -44 -4 -44 -5 0 -10 12 -10 26 0 32 -22 27 -31 -7 -6 -21 -7
-21 -8 9 -1 27 2 32 23 32 13 0 27 -7 30 -16z m84 -31 c-3 -44 -5 -48 -30 -51
-16 -2 -28 1 -28 6 0 5 10 8 21 8 12 -1 24 5 27 13 3 8 -1 12 -9 9 -18 -7 -49
9 -49 25 0 20 22 37 48 37 21 0 23 -3 20 -47z m211 -5 c-1 -29 -4 -43 -6 -32
-3 16 -10 20 -23 17 -25 -7 -47 32 -29 53 6 8 22 14 35 14 22 0 24 -4 23 -52z
m41 27 c0 -34 28 -32 33 3 4 26 4 25 6 -5 1 -24 -4 -33 -20 -38 -14 -5 -25 -2
-30 6 -12 19 -11 59 1 59 6 0 10 -11 10 -25z m80 -5 c0 -16 -4 -30 -10 -30 -5
0 -10 14 -10 30 0 17 5 30 10 30 6 0 10 -13 10 -30z m77 19 c22 -22 -12 -70
-38 -53 -5 3 -9 -4 -9 -15 0 -12 -4 -21 -9 -21 -5 0 -9 23 -9 50 -1 48 0 50
27 50 15 0 32 -5 38 -11z m120 -29 c1 -33 1 -33 -5 -6 -10 42 -32 46 -32 6 0
-18 -4 -29 -10 -25 -5 3 -10 18 -10 31 0 16 -5 24 -12 21 -7 -2 -13 -14 -12
-26 0 -11 -3 -21 -8 -21 -4 0 -8 14 -8 30 0 30 1 30 48 28 46 -3 47 -4 49 -38z
m81 18 c3 -14 -4 -18 -25 -19 l-28 -1 30 -7 c24 -5 26 -8 13 -13 -10 -4 -25
-5 -33 -2 -15 6 -21 45 -8 58 13 13 48 1 51 -16z m79 -13 c2 -28 1 -28 -5 -5
-5 14 -14 25 -22 25 -8 0 -17 -11 -21 -25 -6 -23 -7 -22 -8 8 -1 31 1 33 27
30 22 -2 27 -8 29 -33z m241 9 c2 -11 -4 -26 -12 -33 -31 -26 -71 14 -45 45
17 21 53 14 57 -12z m192 7 c7 -15 6 -23 -6 -35 -18 -18 -17 -18 -38 -10 -16
6 -22 45 -9 57 13 14 43 7 53 -12z m34 -8 c4 -27 29 -22 37 7 6 22 7 20 8 -11
1 -33 -1 -36 -26 -35 -24 1 -28 6 -31 36 -4 35 7 38 12 3z m94 15 c-9 -7 -18
-22 -21 -33 -3 -13 -5 -8 -6 13 -1 27 3 32 21 32 19 0 20 -1 6 -12z m180 -36
c9 2 19 14 23 28 7 23 7 23 8 -6 1 -25 -4 -33 -21 -37 -30 -8 -38 -1 -37 36 2
31 2 31 6 4 3 -20 9 -27 21 -25z m77 38 c-18 -7 -19 -8 -2 -15 19 -8 23 -30 6
-41 -6 -3 -16 -1 -22 5 -8 8 -6 11 9 11 18 1 18 1 2 11 -26 14 -22 39 5 38 21
0 21 -1 2 -9z m51 -20 c1 -16 -2 -30 -7 -30 -5 0 -9 14 -9 30 0 17 3 30 8 30
4 0 8 -13 8 -30z m76 0 c3 -16 1 -30 -4 -30 -4 0 -8 11 -8 25 0 16 -6 25 -15
25 -9 0 -15 -9 -15 -25 0 -14 -4 -25 -10 -25 -5 0 -10 14 -10 30 0 26 3 30 29
30 24 0 29 -5 33 -30z m77 17 c13 -17 5 -27 -23 -28 -18 -1 -18 -2 4 -9 22 -6
23 -8 7 -15 -30 -13 -64 35 -40 58 11 12 40 8 52 -6z m46 4 c-19 -8 -19 -8 3
-20 12 -6 22 -16 22 -20 0 -14 -32 -23 -44 -11 -7 7 -4 10 9 10 18 0 18 0 0
13 -20 16 -13 37 13 36 14 0 13 -2 -3 -8z m65 -1 c-13 -8 -12 -11 5 -24 15
-11 17 -17 8 -27 -7 -7 -19 -9 -30 -4 -16 7 -15 9 7 15 15 5 18 8 8 9 -9 1
-20 6 -23 11 -9 14 3 30 23 30 15 0 15 -2 2 -10z"/>
<path d="M1650 1495 c0 -4 41 -50 91 -104 79 -83 96 -96 125 -97 19 -1 34 2
34 7 0 9 -83 79 -94 79 -4 0 -41 27 -82 61 -41 33 -74 57 -74 54z"/>
<path d="M1896 1257 c-18 -13 -18 -14 -2 -20 22 -9 36 -1 36 19 0 18 -11 18
-34 1z"/>
<path d="M1409 1291 l-36 -47 20 -25 c10 -13 28 -35 39 -49 l20 -25 39 45 c21
25 39 48 39 52 0 7 -70 92 -79 95 -3 1 -22 -20 -42 -46z"/>
<path d="M2467 614 l-36 -46 36 -44 c19 -24 38 -44 42 -44 8 0 71 81 71 91 0
9 -63 88 -71 88 -4 1 -23 -20 -42 -45z"/>
<path d="M1980 585 l0 -45 94 0 c120 0 126 2 126 51 l0 39 -110 0 -110 0 0
-45z"/>
<path d="M2180 155 c0 -8 7 -15 15 -15 8 0 15 7 15 15 0 8 -7 15 -15 15 -8 0
-15 -7 -15 -15z"/>
<path d="M2180 116 c0 -10 9 -16 21 -16 24 0 21 23 -4 28 -10 2 -17 -3 -17
-12z"/>
<path d="M250 120 c0 -15 5 -20 18 -18 9 2 17 10 17 18 0 8 -8 16 -17 18 -13
2 -18 -3 -18 -18z"/>
<path d="M485 130 c-3 -5 3 -10 14 -10 12 0 21 5 21 10 0 6 -6 10 -14 10 -8 0
-18 -4 -21 -10z"/>
<path d="M800 121 c0 -15 6 -21 21 -21 14 0 19 5 17 17 -5 26 -38 29 -38 4z"/>
<path d="M1010 121 c0 -15 6 -21 21 -21 14 0 19 5 17 17 -5 26 -38 29 -38 4z"/>
<path d="M1217 134 c-14 -15 -6 -34 14 -34 14 0 19 5 17 17 -3 18 -20 27 -31
17z"/>
<path d="M1415 130 c-3 -5 3 -10 14 -10 12 0 21 5 21 10 0 6 -6 10 -14 10 -8
0 -18 -4 -21 -10z"/>
<path d="M1725 131 c-9 -16 3 -31 26 -31 14 0 19 6 17 17 -4 20 -33 29 -43 14z"/>
<path d="M1927 134 c-14 -15 -6 -34 14 -34 14 0 19 5 17 17 -3 18 -20 27 -31
17z"/>
<path d="M2520 130 c0 -5 7 -10 15 -10 8 0 15 5 15 10 0 6 -7 10 -15 10 -8 0
-15 -4 -15 -10z"/>
</g>
</svg>
